# xmcd
#
# Track frame offsets:
#	150
#	11025
#	29062
#	47777
#	63510
#	78510
#	91704
#	107292
#	118732
#	137037
#	151075
#	166917
#
# Disc length: 2433
#
# Revision: 3
# Processed by: cddbd v1.5.1PL0 Copyright (c) Steve Scherf et al.
# Submitted via: CDValet v3.31 - Copyright (c) 1997 Greg Leichner
# Normalized: r1:DSETVAR1,TSWAP
#
DISCID=91097f0c
DTITLE=Various Artist - Young Country: Kings Of Country
DYEAR=1900
DGENRE=
TTITLE0=Alan Jackson - She's Got The Rhythm (And I Got The Blues)
TTITLE1=Vince Gill - Never Knew Lonely
TTITLE2=Mark O'Connor - The Devil Comes Back To Georgia
TTITLE3=Marty Stuart and Travis Tritt - This One's Gonna Hurt You (For A Long, Long Time)
TTITLE4=Steve Wariner - If I Didn't Love You
TTITLE5=Sammy Kershaw - She Don't Know She's Beautiful
TTITLE6=Ricky Van Shelton - I'm A Simple Man
TTITLE7=Tracy Byrd - Holdin' Heaven
TTITLE8=Randy Travis - Hard Rock Bottom Of Your Heart
TTITLE9=Neal McCoy - Now I Pray For Rain
TTITLE10=Radney Foster - Nobody Wins
TTITLE11=Dude Mowrey - Maybe You Were The One
EXTD=
EXTT0=
EXTT1=
EXTT2=
EXTT3=
EXTT4=
EXTT5=
EXTT6=
EXTT7=
EXTT8=
EXTT9=
EXTT10=
EXTT11=
PLAYORDER=
